/* XPM */
static char *_1758f74b1e8442cd3402122fbc525b3aldUPMtURyRXZ7jc[] = {
/* columns rows colors chars-per-pixel */
"64 64 256 2 ",
"   c #290F1D",
".  c #371C26",
"X  c #3B222A",
"o  c #3C2332",
"O  c #1E0713",
"+  c #560B07",
"@  c #51110E",
"#  c #6A0A06",
"$  c #770A04",
"%  c #66130C",
"&  c #78120B",
"*  c #671916",
"=  c #771613",
"-  c #74211B",
";  c #431E2A",
":  c #47272D",
">  c #4B2A33",
",  c #492A36",
"<  c #542D36",
"1  c #493539",
"2  c #5B343C",
"3  c #573439",
"4  c #592725",
"5  c #64383C",
"6  c #783A39",
"7  c #722A29",
"8  c #741F22",
"9  c #72413D",
"0  c #5A3843",
"q  c #582D49",
"w  c #653A44",
"e  c #6C3C44",
"r  c #673946",
"t  c #723E45",
"y  c #74275E",
"u  c #783267",
"i  c #5C4B4A",
"p  c #6A4448",
"a  c #73444C",
"s  c #7B444C",
"d  c #77484A",
"f  c #7B4C53",
"g  c #784751",
"h  c #7A5556",
"j  c #6B5153",
"k  c #796B68",
"l  c #7A665F",
"z  c #840C03",
"x  c #880A06",
"c  c #960605",
"v  c #86110A",
"b  c #8A1615",
"n  c #971A18",
"m  c #A50A07",
"M  c #B70B0A",
"N  c #A71916",
"B  c #B71917",
"V  c #AB100E",
"C  c #B7221C",
"Z  c #862725",
"A  c #9B2828",
"S  c #903635",
"D  c #BA2725",
"F  c #B63B37",
"G  c #AA312F",
"H  c #97221E",
"J  c #D70808",
"K  c #C81A17",
"L  c #D61916",
"P  c #C80B0B",
"I  c #E70B0B",
"U  c #E81916",
"Y  c #F41B15",
"T  c #F41D1A",
"R  c #F71815",
"E  c #EA140D",
"W  c #CA231C",
"Q  c #D7221C",
"!  c #EB261C",
"~  c #F3221C",
"^  c #F22A1D",
"/  c #F9241B",
"(  c #C82724",
")  c #D52823",
"_  c #C63D36",
"`  c #D0332D",
"'  c #E92A22",
"]  c #F42B23",
"[  c #F52A24",
"{  c #F23127",
"}  c #EB1F20",
"|  c #BD4339",
" . c #A34B3F",
".. c #85493F",
"X. c #CC453B",
"o. c #BE3E41",
"O. c #85494B",
"+. c #9C564B",
"@. c #824C53",
"#. c #894E56",
"$. c #845256",
"%. c #85545A",
"&. c #8B545B",
"*. c #885859",
"=. c #94585B",
"-. c #934B49",
";. c #AE514B",
":. c #96665B",
">. c #A96556",
",. c #B76858",
"<. c #B56850",
"1. c #8D5A61",
"2. c #945C63",
"3. c #9A5D64",
"4. c #87486C",
"5. c #896667",
"6. c #9B6469",
"7. c #986667",
"8. c #96736C",
"9. c #967878",
"0. c #8E7274",
"q. c #A4656C",
"w. c #A46A6D",
"e. c #A86969",
"r. c #B56A66",
"t. c #A46C72",
"y. c #AB6D72",
"u. c #A97678",
"i. c #BC7C7C",
"p. c #B47777",
"a. c #AF726B",
"s. c #A95F62",
"d. c #CF534E",
"f. c #C56C55",
"g. c #D67856",
"h. c #C87052",
"j. c #E37E5A",
"k. c #C87A68",
"l. c #C47C7A",
"z. c #D0736D",
"x. c #E77765",
"c. c #96867D",
"v. c #A9867B",
"b. c #BC857A",
"n. c #B5917D",
"m. c #E9845C",
"M. c #F58B5F",
"N. c #C6857B",
"B. c #D68975",
"V. c #EB8663",
"C. c #EB8E70",
"Z. c #B97E82",
"A. c #A07B80",
"S. c #976387",
"D. c #C07F80",
"F. c #968A87",
"G. c #9A9693",
"H. c #8E8985",
"J. c #A78A89",
"K. c #B98686",
"L. c #B89589",
"P. c #A89795",
"I. c #B89996",
"U. c #AC928D",
"Y. c #BCA499",
"T. c #A8A29D",
"R. c #B695A2",
"E. c #B9A8A6",
"W. c #B7ADA9",
"Q. c #9EA29C",
"!. c #C48383",
"~. c #CB8584",
"^. c #CD8A85",
"/. c #CC8B8B",
"(. c #C38B89",
"). c #D18987",
"_. c #D28C8A",
"`. c #D28582",
"'. c #C9948A",
"]. c #D79589",
"[. c #C89796",
"{. c #D69895",
"}. c #C68E90",
"|. c #E99A86",
" X c #C7A69A",
".X c #D9A697",
"XX c #CDA893",
"oX c #E8A599",
"OX c #F8AB99",
"+X c #C4ABA8",
"@X c #C5B3AC",
"#X c #D6B9A9",
"$X c #C8B9B7",
"%X c #D4BAB7",
"&X c #D4AAAA",
"*X c #E7ABA5",
"=X c #F8B5A8",
"-X c #ECB7AA",
";X c #C99AB1",
":X c #D9C4B9",
">X c #CFC2BA",
",X c #E6C8B8",
"<X c #F1CAB5",
"1X c #CCBDC4",
"2X c #E8BEC1",
"3X c #DCCDCC",
"4X c #D7C7C5",
"5X c #DCD3CA",
"6X c #CDC5D4",
"7X c #CFC9D9",
"8X c #D1C6D5",
"9X c #D4CAD5",
"0X c #D3CDDC",
"qX c #DACCD4",
"wX c #DCD1D9",
"eX c #DBD1D5",
"rX c #CDC3C7",
"tX c #EBCBCD",
"yX c #E6C7C8",
"uX c #E8D4CA",
"iX c #F3DACC",
"pX c #F5D6C5",
"aX c #EBCED1",
"sX c #E4CDD2",
"dX c #E4D4D4",
"fX c #EBD4D5",
"gX c #ECD9D5",
"hX c #E2D5DB",
"jX c #EAD6D9",
"kX c #E5DADD",
"lX c #EBDCDB",
"zX c #E6D9D5",
"xX c #F1DDDC",
"cX c #F3DAD4",
"vX c #F0CBCB",
"bX c #EDE1DD",
"nX c #EDE1D7",
"mX c #F4E2DE",
"MX c #F8E4D7",
"NX c #FFE2CD",
"BX c #D8D6E2",
"VX c #EADEE1",
"CX c #E4DAE1",
"ZX c #F2DFE0",
"AX c #EDE2E2",
"SX c #ECE6E9",
"DX c #F2E4E2",
"FX c #F4E9E6",
"GX c #F4EBEA",
"HX c #FBECEA",
"JX c #FAE7E6",
"KX c #FDF1EE",
"LX c #F5F0EF",
"PX c #FCF7F6",
"IX c #F0EEF2",
"UX c #DDE0EC",
/* pixels */
"DXDXAXAXVXVXkXhXwX0X7X0X;Xr.i.I.rXFXFXGXGXFXGXFXDXDXFXHXHXKXKXHXGXFXDXFXGXFXd.E R L c b 4XPXGX%Xz.o.&XHXDXDXDXZXxXxXxXlXlXfXtXyX",
"xXDXAXAXAXVXkXwX0X8X7X8Xo.J N + $.GXDXFXFXFXFXHXHXHXDX3X$X$X$X4XlXHXKXHXKX4XK Y T B x w.PX+X;.K I I K 4XHXDXDXDXDXDXAXlXlXjXsXyX",
"jXlXAXAXAXlXkXCX0X6XBXR.K K & $ =.GXDXGXKXHXDXfX%X[.K.K.K.K.K.K.J.I.$XgXPX{.J T U x Z eXr.M I R R T I r.KXDXDXDXDXDXDXbXlXjXdXyX",
"fXjXlXVXVXkXAXW.1X0XBXy.L N z c I.LXHXbX%X+X}.!.i.N.).{.{.{.{.{.{.{.(.(.%Xz.E T ( $ e.d.I R } L L ) U D zXGXDXDXAXDXDXAXlXjXdXsX",
"tXfXlXlXkXSX%X+ s wX0X;.J b c A kXhXE.K.i.~.~.`.)._.)./.^.~._.~.~.~.)._.}._ Y [ N v L I K N b v x c N c [.KXAXAXAXAXAXAXlXjXjXaX",
"tXaXjXlXlXSX;.c $ R.BX;.P x m K.$Xu.N._.]._.).~.`.).).).^.l.N.).~.~.~.l.~.;.U T b 8 A = x c c m c c x & @XGXVXAXAXAXAXAXlXjXfXaX",
"yXtXfXjXAX3X( P $ A BX;.M c A I.b._._._._._.).~.).l.~._.)._.N.p./.).~.~.).p.B U = %.u.2.6 6 a.p.u.u.I.3XGXAXVXVXVXAXAXlXlXfXaXaX",
"2XyXaXfXAX3X( I N x r.z.M v p.{._.).).).).).).).).^.p.l._.~./.~.p.~._.p.*.$.S V 7 q.y.q.2.7.4XPXKXPXPXHXAXVXVXVXCXlXlXlXfXaXtXaX",
"%XyXfXjXlXGX{.J U V c G B a.{.~.^.^.).).).).).^./._.{.i.a.).N.~.~.e.p.q.7.p.+.c s w.q.&.s 6.%.uXHXDXFXDXAXVXlXkXkXkXjXfXaXyXyXtX",
"yXaXfXlXAXAXGXr.J E L v l.{.~.).~.~.).^.^.~.~.~././.{.*XK.w.~.i.!.!.6.~.y.5.Z V &.w.3.@.t 3.5 6 tXKXDXFXDXAXVXlXkXjXjXfXyX2X2XvX",
"tXfXlXlXAXDXFXSXZ._ ( z.[.!.^.~.~.~.N.N.~.!.~.!.!.^.~.}.*XK.y.Z.y.!.u.*.*.p =.7 =.3.3.O.e 3.g 7 G lXHXDXDXAXlXlXlXjXjXaXyXyXyXtX",
"aXfXjXlXAXDXDXFXKXFXJ.(.i.~._.l.l.!.i.l.l.l.!.i.l.i.i.p.K.&Xu.6.u.y.p.*.6.=.6.p =.%.3.O.5 3.s p B ;.FXJXDXDXxXlXlXlXfXaXtXyXtXaX",
"fXjXjXlXAXDXFXDXHX4Xu.(.}._.}.p.!.i.i.p.p.!.a.a.w.f 6.w.t.u.[.5.6.w.6.5.$.q.p 2 &.g 2.O.e q.s p G J e.GXJXxXDXZXxXlXfXaXtXtXaXfX",
"jXjXjXjXlXAXDXFXGXU.K.[.{.{.!.p.!.i.!.a.!.N.=.e.7.9.7.f 6.6.u.K.%.7.2.2.h p a 5 @.e 3.@.f y.@.5 #.) P p jXHXxXmXxXgXfXtXtXtXaXfX",
"jXjXjXjXlXAXAXHX4X8.K.}.{.{.p.p.y.i.K.K./.p.$.6.%.'.[.d p 2.3.y.w.1.1.&.1.5 3.5 p 5 3.O.&.y.#.5 1.;.R c > 3XHXcXxXfXfXaXtXaXfXfX",
"jXjXjXkXlXDXbXKXE.5.Z./.{.}.y.y.6.!.p.}.!.q.a 7.f L.<Xu.f j %.q.t.&.1.#.3.d %.> 2 2 2.O.2.p.=.e &.9.( R $ 4 @XHXcXfXfXaXfXfXcXcX",
"jXjXjXkXlXAXAXHXU.5.u.(.[.!.6.6.q.!.u.}.p.%.f =.a XX<X,X*.h 5.*.w.6.6.%.1.f 2 < > > &.&.q.i.3.t O.9.s.I U # % L.HXJXcXaXfXxXxXxX",
"kXjXkXlXVXAXFXGXJ.1.u.K.[.i.7.6.y.i.u.p.q.f *.%.d #XpXpXL.p v.[.*.6.y.1.g g 2 f : > %.3.e.!.w.s #.5.@XB R K $ v +.[.yXFXHXDXxXcX",
"jXjXkXlXAXDXFXHXJ.%.u.K.K.p.7.2.y.u.u.y.@.1.5.a *.,XiX#X,X Xp L.,X8.=.7.a a p f < : @.3.a.~.y.&.#.s $Xl.I ~ V x m c H =.E.lXHXJX",
"jXjXkXlXDXFXFXKXI.f y.p.p.u.%.%.q.w.7.y.e v.8.e J.,X:X#X<XpX#X*..X X< 2.g r 0.5.: X s 6.p./.p.2.#.s F.cX( R U M m V M m x S u.%X",
"jXjXjXbXDXFXFXKX$Xa w.t.w.y.f a 2.%.7.q.w XX5.w  X:X,X,X<X<X+Xh : 8.h f @.w 5.5.  X d w.i./.i.q.=.O.p DX~.J R Y L B V B B M c n ",
"fXjXlXbXFXFXFXPX}.6 q.7.q.u.f t 2.5 7.a *.,Xd h :XvXpX#XI.j q u 9. X0 w $.5 1.h X . *.e.i./.Z.w.=.#.5 E.KXz.J R R Y L B N N B M ",
"fXlXxXDXFXDXKX,XK S 6.1.6.y.f 5 s < e > L.,X5 L.,XpX,X9.q u S.;XiX,X5 *.g w p w , X 3.w.i./.!.w.=.@.t 5.FXHX{.( I R Y E K n -.-.",
"fXlXxXDXDXHXgX` E Z 5.%.3.t.a e s 2 < h pX,Xf ,X,XpX#X#X X4.u 5.,XL.h v.e w p 2 . , &.e.Z./.!.w.=.@.e a 4XHXKXzXr.K U Y Y U ( r.",
"lXxXDXDXGXFXd.I ( + 5 f 2.6.e r e < p Y.pXU.J.pX,XpXiXiXiX#Xn.'..Xh L.v.r w 2 : , , f p.K./.!.q.#.#.< t J.KXmXHXKX%X;.K U Y U J ",
"xXmXDXFXGXd.J d.#.+ < 5 1.&.s w > : 1 i q 0 ,X,XiXiXiXiXpX<X].N.-X5.,X8.w 2 : > H.1 e p.!./.!.q.=.&.< s *.dXHXDXDXKXFX@Xs.D L U ",
"DXDXDXLXz.J z.E.@ @ a p %.&.g , . 3 j 5.y R.:X<XiXiXiXiXpX-X.X<X#XL.NX8.w > . G.eXo 3 y.!.~.!.y.=.=.: e $.E.KXmXFXmXxXJXxX%Xr.G ",
"DXbXLX`.P z.AX6 + *.8.s f $.w o   j :XiXI.9.#XpXiXiXiXiXiXpX<XpX X%XNX8.2 3 0.P.E.0 ; w.~.!.!.y.=.=.< < %.0.FXFXDXmXcXfXtXvXtX%X",
"bXGX].M ~.PXu.$ * E.6.s w g > . 3 . 1 Y.#X.X-XvXuXiXiXiXiXiXpXiX,XpXpX5.< 8.U.0.T.j   5.~.!.!.y.=.=.w 2 @.h 4XHXmXmXcXfXtXyX%XyX",
"LX*XB {.IXdXA c #.4X2.@.> r : r p ,   H.n.].-XpXuXiXiXiXiXiXiXpXiXpXpXp p ,XE.rXbXP.O g ~.!.y.=.6.b.r.<.f.9 I.HXxXxXfXfXaXyXyXyX",
"yXF &XSXAX(.V v @X%X=.f : 0 3 2 e > . $XY. XcXiXiXuXiXiXiXiXiXiXiXpX#X: I.#XP.>X4X5X1 3 y.7.p.{.OX=Xk.m.M.+.0.JXlXlXjXsXsXsXyXyX",
"-.&XIXhXVX;.m -.KX+X&.g 2 < , , 2 > : $XKXW.W.,XiXNXuXuXiXiXiXNX,X#X8.l @X+X>X5X5XW.9.3 u.*X=X=X=X_.h.V.V.>.f 4XZXhXhXqXqXqXqXqX",
"A jXkXSX&XN m (.PX@X&.s 2 0 : , > : X 0.KXAXW.@X+X%XiXNXiXiXNX#Xn. Xc.uXzXnXnX@XI.^.>.].=XoX^.N.oXN.j.V.V.-.s I.lXqX9X9X8X8X8X9X",
"d.FXjXSX[.m N &XPX+X&.g < 2 w : , , X X J.N.B.#X+X:.n.:XiXuX X.XXXG.4XgXuX5XL.(.oXk.oXoXN.b.+.g.f.g.V.V.g.#.a 9.qXqX6X6X6X6X8X8X",
"z.GXkXSX&XN V }.PX@X$.@.> 2 s e X 3 0 1 ; r.OXB.$.B.C.b.W.E. X<XY.>XT.uXuX XoX=X].oX].N.-XN.b.L.v.k.m.j.<.+.-.>.+X0X6X6X6X6X6X6X",
"~.GXkXAXsXG V e.PX@Xf @.: 2 #.s 2 > *.|.a.5 r.|.>.>.B.Y.5XmX XL.$XMX4XW.b.d.d.z.{.b.N.oX=XL.4XDXFX'.h.h.<.g.M.g.8.8X6X6X6X6X6X6X",
"!.SXkXkXAX+.V S DX>X$.@.> 5 &.a w a 9 >.|.C.,.r.B.B.|.k.:. X@XJ.mX4X7.| Q ! ~ F {.oX=XOX=XI.uXcXxX4X,.M.M.m.>.d t.@X7X6X6X6X6X6X",
"K.SXkXkXGXK.N n +XsX$.@.< 5 &.a 2 {.oXe.N.x.! ) F ,.N.k.C.+.F.$XK.G Q ] { { ^ X.=X=XOX=X.X@XmXgXgXmXv.g.m.-.d &.t.A.6X6X6X6X6X6X",
"p.AXhXhXVXrXA V s.3X%.&.2 5 &.2 7.=X=X=XoX) R R Y L G B.w.P.@X;.L / ] ^ ^ ] ^ X.*XOX=XoX#XxXgXlXlXFX@Xh.g.>.$.s 7.7.R.0X6X6X6X6X",
";.CXhXhXwXSXq.m H I.7.&.2 5 @.d =XOXOX=Xd.E T ~ ] [ ~ N W.yXF ~ ] ^ ^ ^ ^ { ! d.=XoXoX XDXgXlXlXbXAXbXp.;.h.h.+.a u.5.6X8X6X6X9X",
"F qXhXwX9XwX1Xn B S %.%.2 a f *.=XOX=XoX) R Y ~ ] [ [ U ;.X.! ) ' ^ ^ ^ ^ ] ! d.N.{.oXb.lXbXbXbXAXbXGX#Xh.g.m.M.-.5.7.A.CX9X9X9X",
"D $XCX9X9X8XBXy.V n a 1.< a $.e '.=X=Xz.E T Y ~ Y / / L L K n = H ] ^ ^ ^ ] Q ;.'.{.|.XXFXbXbXAXAXbXFX&Xj.m.m.m...%.K.f $XCXwXwX",
"K L.BX8X6X6X7XrXG b f %.> t $.@.*.*XoXX.R ~ ~ Y / Q K W K N W W ) ] ^ ^ ^ ] C p.!.oXb.4XDXbXbXbXbXbXDXN.f.V.g.+.w g K.Z.5.VXkXhX",
"L r.BX6X6X6X6X0X[.6 a g > t %.@.t :._.) T ~ Y ~ n = n C W ! ^ ^ ] ^ ^ ^ ^ ' Z 8.*X].L.FXlXlXbXbXbXbXzXk.h.<.:.w.5.j %.[.7.R.GXhX",
"U o.9X6X6X6X6X8X8X7.t w : e $.s =.'.].Q / Y T n % C ! n D { ] ^ ^ ^ ^ ^ ^ W 7 oXOX'.zXbXgXnXbXbXlXbX3X>.h.g.+.w.9.P.a t.[.5.qXCX",
"L W %X0X6X6X6X0XW.*.@.e . w $.@.-X<Xz.! / ~ T C b K / N = ' ^ ^ ^ ^ ^ ^ ! b e.<X^.Y.DXlXlXbXlXlXlXFX+Xg.h.j.m.<.f $XE.e K.Z.J.VX",
"F ;.Z.BX8X8X6X0XP.@.&.g o 2 $.a a.=Xd.U ~ ] ~ ] { ! / Q Z ( / ] ^ ^ ^ ! W - _.{.'.J.zXmXlXlXlXlXlXDXL.g.m.m.M.g.d J.GXJ.@.(.8.W.",
"J.4X8.eXqX9X0XqX9.@.2.1., < g @.d *Xd.U [ ~ ] ^ ] ~ / W | B ] ^ ' ^ ! W b +.oXoX=XU.hXbXlXbXlXlXlXbX7.g.m.<.+.=.7.9.lXeXU.&.p.5.",
"hXVX9XeXhXwXCX1X1.@.3.t.0 > a @.2.K.;.Q ] ] ^ ^ ^ / Q D X.B W ^ ! ! Q N - B.p.^.-XP.4XDXlXlXlXlXmX4X>.;.O.2 w Z.u.0.DX$XFXU.=.a.",
"VXkXVXVXkXkXSXE.*.@.6.y.w > a s 6.I.6 N ' ] ] ] ^ ) B ) X.U N Q ! Q B $ +.oX_.].'.W.T.4XDXlXlXgXDX@Xg.V.9 0 p i.y.9.HX4X4XGXJ.=.",
"VXVXVXVXAXAXSXJ.@.#.y.y.2 0 a a 3.yX9.+ B ' { [ ' N U ` _ T K b N N v - |.].oX=Xb.E.W.F.zXlXlXgXDX X<.6 5 3 0 p.y.J.JXlX4XlXlXU.",
"CXVXVXVXAXFXzX8.#.&.6.%.2 w r t %.yXbXl * N ) W b B R ` _ Y Y B = = = f.OX].oX{.5.$XjXG.P.jXlXfXDX0.. o 0 < p u.6.I.JXmXlXlXGXFX",
"hXkXCXVXlXGX$X&.a 5 =.d 2 0 w w h 4XKX$X5.8 b * b Q R _ | Y ~ K N % Z C.OX_.^.p.F.$XmX4XE.@XlXfXmXi . , 2 < f y.u.sXHXsX$XE.@X3X",
"wXwXhXkXjXFXU.d 3 2.6.a 2 0 w w h zXHX$XG.9.4 v N ! R X.| U / L K N & f.=X'.oX].:.F.fXcXsX>X4XfXlXj . , 1 3 %.u.u.0.d * + + @ 4 ",
"0XqXwXwXkXkX5.p f 6.f a 0 0 w 2 5.DXJX>XG.G.= N N T Y | ;.U / U K L &  .=X^.].r.>.8.3XgXfXlXdXfXdXH.o : 2 2 5 7 % # $ $ $ # % + ",
"9X9XwXwXCX4Xh p g %.j 1 X w w < F.HXmX3XG.d m N C ~ Y F ;.U T ! B E m Z OX'.8.k.,.>.$XxXfXfXfXfXdX@XW.1 2 * # z x v v v v v $ # ",
"9X9XwXwXVXE.h p 5.j p 0 1 3 e 2 @XHXmXsX0.n K n ) ~ Y F ;.L Y T K U U n ]..XP.:.,.<.I.DXfXfXfXfXlX$XlX3Xd $ x z z x v x x v z $ ",
"9X9XwXhXlX9.@.*.f : > X p p w i jXmXmX3XO.B C C ! ~ Y | ,.L T Y L U T M ,..XW.W.:.,.L.bXfXgXgXgXgXgXuXHXJ.# x z z v v x x x v v ",
"8X9XeXlX$Xh &.f h : . < w p . 9.HXgXmXtXD K D D ^ ~ Y | ,.L T Y U U / E G .XE.>Xc.5.v.lXgXgXgXgXgXgXgXlX6 $ x z x v & & z z v & ",
"qX3XdXAXJ.@.s J.MX5.5 a p : , sXmXcXHX{.K W ( ( [ ~ T | f.L T Y T U ~ Y B a.E.>XF.G.P.gXfXfXfXgXfXfXxX$X= v v & % @ @ @ $ z x & ",
"qXsXzXdX5.s 9.pX-X+Xd p > . P.HXgXcXDX;.L ) ( ) ] ~ T _ f.L T Y T T ^ ~ L G c.>XF.k W.uXfXfXgXgXgXfXmX+X& = % + % % @ @ z z z v ",
"3XdXjXE.f @. X X[.,XI.j 3 P.DXxXJXHXyXG Q ) ( ) ] ^ ~ _ f.Q T Y Y T ~ ] ' D l T.E.H.W.uXfXfXgXgXgXgXgXyX4 + * % % + @ & z z z v ",
"sXdXdX0.@.1.I.,XpXpXpX[.U.JXJXDX$XW.8.B ) ) ( ' [ [ ~ X.z.Q T Y T T ~ ' { L =.Q.P.0.F.4XgXgXgXgXgXgXgXzX2 % * % % @ & x z z z v ",
"sXjX$Xj %.1.%XpX,X X&X[. X$X>XE.F.H.-.W ( ) ) ' [ [ ~ X.B.Q Y T T ~ ' ' ' ! A 6 % # 7 T.fXgXgXgXgXgXgXbXh + % % + $ z z z z z z "
};
